<?xml version="1.0" encoding="UTF-8"?>
<svg xmlns="http://www.w3.org/2000/svg" xmlns:xlink="http://www.w3.org/1999/xlink" version="1.1" viewBox="0 0 2000 2000">
  <defs>
    <style>
      .cls-1 {
        fill: url(#radial-gradient-7);
      }

      .cls-2 {
        fill: url(#radial-gradient-6);
      }

      .cls-3 {
        fill: url(#radial-gradient-5);
      }

      .cls-4 {
        fill: url(#radial-gradient-4);
      }

      .cls-5 {
        fill: url(#radial-gradient-9);
      }

      .cls-6 {
        fill: url(#radial-gradient-8);
      }

      .cls-7 {
        fill: url(#radial-gradient-3);
      }

      .cls-8 {
        fill: url(#radial-gradient-2);
      }

      .cls-9 {
        fill: #d90000;
      }

      .cls-10 {
        fill: url(#radial-gradient);
      }

      .cls-11 {
        fill: #fff;
      }
    </style>
    <radialGradient id="radial-gradient" cx="1621.7" cy="1092.1" fx="1621.7" fy="1092.1" r="19.8" gradientTransform="translate(-2.5 101) rotate(-.2) scale(1 .9) skewX(0)" gradientUnits="userSpaceOnUse">
      <stop offset="0" stop-color="#fff"/>
      <stop offset=".6" stop-color="#fafafa"/>
      <stop offset="1" stop-color="#f2f2f2"/>
    </radialGradient>
    <radialGradient id="radial-gradient-2" cx="1622.7" cy="1120.5" fx="1622.7" fy="1120.5" r="61.6" xlink:href="#radial-gradient"/>
    <radialGradient id="radial-gradient-3" cx="1622.6" cy="1144.2" fx="1622.6" fy="1144.2" r="20.6" xlink:href="#radial-gradient"/>
    <radialGradient id="radial-gradient-4" cx="1707.2" cy="1091.7" fx="1707.2" fy="1091.7" r="20.4" xlink:href="#radial-gradient"/>
    <radialGradient id="radial-gradient-5" cx="1707" cy="1120.5" fx="1707" fy="1120.5" r="61.6" xlink:href="#radial-gradient"/>
    <radialGradient id="radial-gradient-6" cx="1708" cy="1143.5" fx="1708" fy="1143.5" r="19.8" xlink:href="#radial-gradient"/>
    <radialGradient id="radial-gradient-7" cx="1665.8" cy="1118.2" fx="1665.8" fy="1118.2" r="29" xlink:href="#radial-gradient"/>
    <radialGradient id="radial-gradient-8" cx="1776.4" cy="1125.6" fx="1776.4" fy="1125.6" r="65.7" xlink:href="#radial-gradient"/>
    <radialGradient id="radial-gradient-9" cx="1783.4" cy="1043.2" fx="1783.4" fy="1043.2" r="8.3" xlink:href="#radial-gradient"/>
  </defs>
  <!-- Generator: Adobe Illustrator 28.7.1, SVG Export Plug-In . SVG Version: 1.2.0 Build 142)  -->
  <g>
    <g id="Layer_2">
      <rect class="cls-11" width="2000" height="2000"/>
    </g>
    <g id="Layer_1">
      <g>
        <g>
          <path class="cls-9" d="M1855.6,1156.4c0,0-.1,0-.2,0,0,0,.2,0,.3,0,0,0,0,0-.1,0Z"/>
          <path class="cls-9" d="M1845.3,1136.2c.3,0,.6-.2.7-.4-.4,0-.6.2-.7.4Z"/>
          <path class="cls-9" d="M1844.7,1136.4c.2,0,.4,0,.6-.1,0,0,0,0,0,0,0,0,0,0,0,0-.2,0-.4,0-.6.1,0,0,0,0,0,0,0,0,0,0,0,0h0Z"/>
          <path class="cls-9" d="M1845.3,1096.7h.1c0,0-.1,0-.1,0-.2.1-.5.2-.7.3,0,0,0,0,0,0,0,0,0,0,0,0,.2-.1.4-.2.7-.4Z"/>
          <path class="cls-9" d="M1837.1,1103.8s0,0-.1,0c0,0,0,0,0,0,0,0,0,0,0,0,0,0,0,0,.1,0Z"/>
          <path class="cls-9" d="M1855.4,1156.5s0,0,0,0c0,0,0,0,0,0-.3,0-.6-.1-.9-.2,0,0,0,0,0,0,0,0,0,0,0,0,.3,0,.6.1.9.2Z"/>
          <path class="cls-9" d="M1828.8,1041.7h-.1s0,0,0,0c0,0,0,0,0,0h0Z"/>
          <path class="cls-9" d="M1850.7,1038h0c0,0,0,0,0,.1,0,0,0,0,0,0h0Z"/>
          <polygon class="cls-9" points="1867 1040.7 1867 1040.8 1867.1 1040.7 1867 1040.7"/>
          <path class="cls-9" d="M1849,1037.3c-.4.2-.9-.2-1,.4.4.2.8.5,1.5.9-.2-.5-.3-.9-.4-1.3Z"/>
          <path class="cls-9" d="M1849.2,1045.1c0,0-.1,0-.2,0,0,0,0,0,0,0,0,0,0,0,.1,0Z"/>
          <path class="cls-9" d="M1864.9,1043.6c-.3-1,.8-1.7.7-2.7-.1,0-.3-.1-.5-.3-1,1.5-1.6,3-3,4,0,0,0,.3,0,.5,1.1-.3,1.9-1,2.8-1.5Z"/>
          <path class="cls-9" d="M1855.7,1039.2c-.7-.5-1.4-1-2.4-1.7-.1.7-.2,1.2-.3,1.6.8.5,1.4.8,1.9,1.2.7-.2.9-.5.7-1Z"/>
          <path class="cls-9" d="M1846.3,1096.3c.5,0,.8-.3,1-.7,0,0-.1,0-.1,0-.2.3-.9.2-.9.8Z"/>
          <path class="cls-9" d="M1847.2,1095.4s0,0,0,0c0,0,0,0,0,0,0,0,0,0,0,0,0,0,0,0,0-.1Z"/>
          <path class="cls-9" d="M1839.2,1112.5c0,.1.1.2.2.3,0,0,.2,0,.3-.1.3-.4.2-.6-.3-.9,0,.2-.2.5-.2.7Z"/>
          <path class="cls-9" d="M1848.3,1093.5c.2.6.4,1.1.7,1.8.7-.4,1.2-.8,1.8-1.6-1,0-1.5-.8-2.4-.2Z"/>
          <path class="cls-9" d="M1869.2,1061.8c-.2.1-.4.2-.7.3-.9.4-1.2.4-1.8-.2-.3-.3-.5-.6-.7-.7-1.8-.2-3.6-.4-5.3-.5q-.3-1.1,0-1.8c-.2-.6-.3-1.1-.5-1.6-.4-.9-.9-1.7-2.2-1.9-.1.3-.3.5-.4.8-.1.3-.2.6-.4.9-.2.3-.5.5-.9.4-.3,0-.4-.3-.4-.6,0-.6,0-1.2-.6-1.8-.2-.2-.2-.5-.1-.7.3-.6,0-1-.2-1.5.6-.7,1.2-1.3,1.8-2,.4-.4.5-.8.5-1.3,0-.7.2-.9,1-1,.2,0,.5,0,.6-.2,0-.3-.4-.7-.3-1,.1-.4.6-.6.8-.9,0-.4-.2-.8-.7-1.1-.7-.3-1.2-.9-2-1-.2,0-.4-.2-.6-.3-.6-.4-1.2-.8-1.8-1.3-.3-.2-.6-.6-.7-.9,0-.7-.2-1.2-1.1-1.5-.1,0-.3-.2-.3-.4-.3-1-1.1-1.4-2-1.8-.2.4-.4.7-.7,1.1.2.3.3.6.4.9.1.3.2.6.2.8.6.5,1.1.9,1.6,1.4.4.4.8.9,1.1,1.4.4.5.7.9.8,1.6-.5.4-1,.9-1.6,1.3.3.6.5,1.2.8,1.7-1,1-1.4,1.1-2.7.8-.4,0-.8-.2-1.2-.3-1.1-.4-1.9-.1-2.6.6-.7-.2-1.2-.3-1.7-.5-.6.3-1.1.7-1.7.8-.5,0-.9.2-1.3.5-.8.5-1.6.6-2.5.2-.4-.1-.8-.3-1.1-.4-.5-.2-.6-.5-.6-.9,0-.3.2-.7.6-.7.7,0,.8-.5,1.1-.9.6,0,1.2,0,1.8-.1-.4-1,0-2.1-1.3-2.8-.9,0-1.9.1-2.6.6-.9.5-1.9.6-2.8.8-.6.1-1.1,0-1.7-.4-.7-.5-1.5-.8-2.3-1.1-1-.3-1.9-.9-1.7-2.1,0-.3-.1-.6-.2-.9-.5-.4-1.3-.6-1.6-1.2.2-.2.4-.5.6-.5,1.2-.3,1.4-1.2,1.6-2.1-.6-.4-1.1-.7-1.6-.9-.3-.6.3-1.2-.4-1.6-.9.3-1.8.5-2.6.8-.5.2-.9.1-1.3-.2,0-.7-.2-1.5-.2-2.3-.1-.9-.1-1.8.7-2.5.3-.3.5-.8.8-1.2-.5-.1-.9-.3-1.4-.4-.5.3-1.1.6-1.7.8-.3,0-.8-.1-1.1-.2-.2.1-.4.2-.6.3-1.7-3.1-5-5.2-8.8-5.2l-296.6,1.2v-1c-.5,0-.9.2-1.4.4-.3.1-.6,0-1,0-1,0-2.1-.2-3.1-.2-.6,0-1.2,0-1.8,0-1.1,0-2.2.1-3.3.3-1.1.2-2.2-.3-3.2.2-.1,0-.3,0-.5,0-1.3-.5-2.5-.2-3.7.2-.3,0-.5.1-.8,0-1-.2-1.9,0-2.9-.3-.6-.2-1.2-.3-1.8-.3-.6,0-1.3.2-1.9.2-1.2,0-2.4-.1-3.6-.1-.9,0-1.6-.1-2.3-.7-.5-.4-1-.5-1.6-.2-.4.2-.7.2-1.1,0-.2-.1-.4,0-.5.2-.9,1.1-1.4,1.2-2.4.4-.5-.4-1-.4-1.5-.5-.6-.2-1.1,0-1.5.5-.3.3-.5.6-.9.8.2.6.4,1.2.6,1.7-.7.5-1.1-.2-1.6-.1-.5,0-1,.2-1.6.4q-.3-.8.2-1c.2-.1.4-.3.8-.5-.4-.3-.7-.6-1-.6-.7,0-1.4,0-2.1,0,0,.1-.1.2-.1.4-.3,1.3-.4,1.4-1.5,1.3-.9-.1-1.9-.1-2.7.2-.6.2-1.1.2-1.6,0-.4-.2-.8-.2-1.3,0-.5.2-1.1.2-1.6,0-.2,0-.4-.4-.5-.6,0-.3,0-.6,0-.9.4-.2.7-.3,1-.5,1.7.6,3,.6,4.1,0-.3-.1-.5-.3-.6-.3-1.4,0-2.7-.3-4.1-.4-1.5-.2-3-.2-4.4-.7-1.4-.5-2.7,0-4,0-.2,0-.5.2-.4.7.9,0,1.8.3,2.8.1.4,0,.8,0,1.3.2.2,0,.3.3.4.5-.9,1-2.2.3-3.1,1,0,.3-.2.6-.3,1,.5.3,1,.6,1.5.6.4,0,.9.1,1.3.3,1.7.8,3.4,1,5.3.7,1-.2,2,0,3.1.2,1,.2,2.1.3,3.1.3,1.5,0,2.9.5,4.4.5.1,0,.2,0,.3,0,1.3.5,2.6.4,3.9.3.9,0,1.7-.2,2.5.3.3.2.6.2,1,.2,1.3-.1,2.4.2,3.3,1.3,1-.5,1.8-.3,2.5.5-.4.9-1,1.4-2,1.2-.3-.7-.5-1.4-1.3-1.6-.7.4-1.4.7-2,1.1-1.2.7-2.3.5-3.4-.2-.2-.1-.4-.2-.6-.1-.5.1-.9,0-1.2-.4-.6-.5-1.2-.2-1.9-.1-.3.7-.8.5-1.3.4-1-.2-2.2.4-3.2-.3,0,0-.2,0-.3,0-.5.2-.8,0-1.3-.2-2-.6-3.9-1-5.9-.2-.9.4-2,.5-3,0-.2,0-.3,0-1,.3.3.1.5.2.6.3.2-.1.4,0,.5.2-.1,0-.3,0-.4.1-.3,0-.7.2-.9,0-.3-.2-.5-.7-.7-1-1.2-.7-1.7.7-2.5,1,0,0,0,.1,0,.2.2.4.5.7.7,1.1-.1.6-.2,1.2-.3,1.8.9.2,1.8.3,2.6.9.7.5,1.4,1.1,2.1,1.7.1.1.2.4.2.7,0,.5,0,.9-.3,1.2-1.1.4-1.2-.9-1.8-1.1-.8.3-1,1.1-1.4,1.6q-1.2.3-1.5,1.3c-.5,0-1,0-1.4,0-.3,0-.6,0-.8.2-.7.9-1.6,1.1-2.7,1.1-.6,0-.9.3-.9,1,.6.6,1.4.6,2.1.9.1,0,.3.3.3.4,0,.1-.2.3-.3.3-.2,0-.5,0-.8,0,.1.4.2.7.3,1.1-.2.1-.3.2-.5.3-.2,0-.3.2-.6.3.9,1.1,2,1.5,3.1,1.7,1.5.3,3.1.2,4.5,1.1.6.4,1.4.4,2,.7.2,0,.4.1.6.2.1,0,.2.2.4.4,0,.3,0,.7,0,1-.3,0-.4.2-.6.1-1.3-.7-2.7-.7-4.1-.4-.6.1-1.1,0-1.6-.3-.3-.2-.5-.4-.7-.6-.7.3-1.5.3-1.7,1.3,0,.2-.5.3-.7.3-.6.1-1.2.1-1.8.2-.5.1-.7.5-.7,1,0,0,.2.2.3.2.8.3,1.4.8,1.6,1.8,0,.4.4.8.7,1.2.3.4.4.9.4,1.5-.3,0-.5,0-.7,0-1,0-2,0-2.9,0-.2,0-.6,0-.7.5.3.2.6.6,1,.8.4.2.8.3,1.2.5.1,0,.3.2.4.3,0,.4,0,.7,0,1-.6.5-1.3.3-1.9.5-.6.2-1,.7-1.6,1.1.2.6.7.8,1.1.9,1.5.7,3,1,4.6,1.1,1,0,1.9.1,2.9.4.4.1.7,0,1.1,0,.2-.1.5-.2.7-.4.4-.4.8-.2,1.2,0,.3,0,.5.3.7.4.1,0,.3-.1.4-.2q-1.2-1-2.4-.9c-1,0-2-.1-2.8-.9.3-.4.5-.7.7-1.1.4-.7.4-.8-.3-1.4-.1,0-.2-.2-.3-.4.2-.3.3-.5.5-.8.4.1.7.3,1,.3.3,0,.7,0,1,.1.9.2,1.7.2,2.5-.3.5-.3.9,0,1.3.3.5.5.4,1.2.6,1.8.3,0,.6,0,.9,0,.6-.2,1.3-.3,1.9-.5.6-.2,1.1-.2,1.7,0,1.3.4,2.5,1.1,3.8,1.5.8.3,1.6.7,2.5.6.3,0,.5,0,.8.2,1.2.5,2.3,1,3.5,1.5.1,0,.2.2.3.4-.1.2-.2.4-.3.6,0,.2-.2.4-.3.7.4.2.7.4,1,.7.6.6.5,1.3-.3,1.7-.3.1-.7,0-.9.5,0,.5.1,1.2.2,1.9-.7.7-1.4,1.3-2.2,2.1.2.3.4.5.5.8.3.6,0,1.2-.4,1.3-.6.1-1.3.3-1.9,0-.3,0-.6,0-.9.1.6,1.2.6,1.2-.3,2.4-2,.5-4,.4-6,.8.5.8,1,1.6,1.4,2.3.7,0,1.4.1,2,.2.4,0,.9.2,1,.8,0,.2,0,.3,0,.5-.4.3-.7.5-1.2.9.5.4.9.7,1.3,1.1-.2.3-.4.6-.6.9-.2.2-.6.2-.7.6.7.6,1.7.5,2,1.6-.2.3-.3.7-.8.6-.3,0-.6,0-.9,0-.6.1-1.3.4-1.9.4-.7,0-1.4,0-2.1,0-.7,0-1.4.3-2.1.5-.5,0-1.1.1-1.6.1-.4,0-.8.2-1,.5-.3.4-.6.8-1.3.8-.4-.4-.9-.9-1.3-1.4-1.2,1.2-1.6,1.3-3.2,1-.2,0-.5,0-.7.1-.2.1,0,.6.5.7.3.1.6.2.9.2.4,0,.8,0,1.1.3.9.5,1.9.5,2.9.5.9,0,1.7,0,2.6,0,.4,0,.9,0,1.3,0,1.7.2,3.5.2,5.2.6,1.4.3,2.8,1,3.8,2.1,0,.5,0,.9-.4,1.2-.8.1-1.6.3-2.4.4q-.2,1.5-.6,2c-.9,0-1.8,0-2.7.4,0,0-.2,0-.3,0-1-.3-2,0-3.1,0-1.2-.1-2.2.4-3.3.9.5.9,1.3.6,2,1,0,.3.1.6.2,1-1.6.1-3.1,0-4.7.5.2.4.3.8.4,1.2,0,.4,0,.8,0,1.2.4.3.8.7,1.2,1,.4.3.7.1.9-.4,0-.2.1-.4.2-.7,1.2,0,2.4.1,3.6.6,0,.4,0,.8-.2,1.1-.1.2-.5.3-.7.4-.4.2-.8.3-1.2.4-.4.1-.8.3-1.2.4-1.1.3-2.2-.1-3.2.3,0,0-.1,0-.2,0-1.3-.6-2.7,0-4-.3-.2,0-.7.2-.7.3-.1.8-.8.8-1.3.9-1.6.2-3.1.2-4.7.2-1.4,0-2.8,0-4.2,0s-.4.2-.9.3c.8.5,1.5.7,2.2.7,1.7,0,3.4.2,5,.5,1.2.2,2.5.2,3.7.3,1.5.1,2.9.5,4.4.4.7,0,1.4.2,1.9.8.6.7,1.3,1.3,1.2,2.5-.4.1-.8.3-1.2.4-1.2-1.4-2.8-1.3-4.3-1.7-.2,0-.6,0-.7.4.7.5,1.5,1,2.3,1.6-.4.9-.9,1.4-1.8,1.5-.9,0-1.8.4-2.6.7.5.5,1.2.8,1.5,1.6,0,.2.3.3.5.4.8.6,1.7,1.1,2.7,1.3.8.1,1.6.2,2,1.3,0,.2.4.4.7.4.8.2,1.6.4,2.4.6.3.1.7.2.8.7-.4.5-.8.5-1.2.4-1.4-.2-2.8-.4-4.2-.5-.6.5,0,1.3-.2,1.8-1,.2-2,.3-2.8.5,0,.3-.1.5-.1.8-.2,0-.3,0-.4,0-.7-.5-1.3-.3-1.8.3-.7.8-1.4,1.6-2.1,2.5.2.3.3.5.4.8.5-.6.8-1.1,1.3-1.5.4-.4.8-.6,1.3-.4.5.2,1.1.3,1.7.2,0-.1,0-.2,0-.2,0-.4-.5-.9-.1-1.3.4-.6.9-.1,1.4,0,.8.1,1.1.6,1.2,1.5,0,.4.1.8.2,1.2.4.3.8.4,1.1.7.2.2.5.4.5.6.1,1,.8,1.2,1.5,1.5.3.1.6.3.8.4.3,1.2-.8,1.9-.6,3,.7.1,1.5.2,2.2.3,2,.4,4,.7,6,.3.2,0,.6,0,.8.2.4.3.8.6,1.1,1,.2.3.4.7.5,1.1.1.8-.4,1.5-1.1,1.3-.7-.2-1.3,0-1.9.2-1.2.5-2.5.7-3.8.7-1.1,0-2.3,0-3.4-.1-.3,0-.7-.1-.8.5.3.1.6.3.9.3,1.6,0,3.2,0,4.7.2,1.1,0,1.2.1,2.3.7-.2.4-.6.2-.8.4-.9.8-2.1.9-3.1,1.5-.8.5-1.7.5-2.5,0-.4-.2-.9-.4-1.4-.5-.9-.2-1.9-.4-2.9-.6-.2,0-.3-.3-.5-.4-.2-.2-.4-.3-.6-.5.1-.4.3-.8.4-1.2-.1,0-.2-.2-.3-.2-.9-.2-1.6-.6-2.1-1.5-.1-.3-.4-.6-.9-.5,0,.6-.2,1.3-.2,2,0,.1,0,.3,0,.3.7.9.6,2.1,1.2,3.1.3.5,0,.9-.4,1.2.1.4.3.9.4,1.3,0,.3,0,.6-.1.9,2,.5,4,.8,5.5,1.9-1.6,2-4.6,2.9-6.4,4.7-.2.2-.3.3-.4.4.3,0,.5,0,.8,0,1.6.4,3.2.3,4.9.4,1,0,2.1.2,2.9,1.1.5.5,1.1.6,1.7.5.7,0,1.4.2,1.9.7,0,.4-.2.7,0,.9.2.3.5.5.8.6.6.2,1.3.3,1.9.5.8,1,.4,1.9,0,2.9-.8.6-1.6.9-2.6.5-.3-.1-.7,0-1.1,0,0,.2,0,.3,0,.4,0,1.1-.2,2.2.7,3.1.3.3.6,1.1.5,1.6-.2,1.4.5,2.2,1.2,3.2-1.1,1.5-.2,2.9,0,4.4,1,0,1.8.6,2.4,1.4.2.3.5.4.8.6.4.3.7.7,1.1,1.1,0,0,0,.2.1.4-.3.3-.6.7-1,1.1.2.3.4.5.5.8.3.8.9,1.3,1.7,1.6.6.2,1,.6,1.5,1,.2.1.4.3.6.4.7-.8,1.4-1.5,2-2.2-.5-.5-.9-1-1.4-1.5-.2-.3-.5-.7-.2-1.1.7-.3,1.4-.2,2,.2,1.3.8,2.7,1.4,4.2,2,.2,0,.4.2.7.4,0,0,0,.3,0,.4,0,.3,0,.6.1.9-.2,0-.5,0-.6,0-.1,0-.2.3-.5.9,1-.6,1.6-.4,2.2-.1.8.4,1.6.6,2.5.5,1.1-.2,1.8.3,2.1,1.6.9.2,1.8.4,2.6.6,0,.1,0,.3,0,.3-.9.6-1.9,1.1-2.9.7-1.1-.4-2.3-.3-3.3-.9-.3-.2-.7-.2-.9-.4-.2-.2-.3-.6-.4-1-.6.2-1.2.3-1.8.4-.6,0-.9.4-1,1,0,.3-.2.7-.2,1,.2.5.3.9.5,1.3,2.4,1.5,4.9,1.5,7.6,1.2.3.4.4,1.1,1.2,1.2.5-.8,1.2-.7,2.1-.5.7.2,1.4.1,2.2.2.2-.3.4-.6.6-.9.5-.2,1.1,0,1.6,0,1.5.9,3.2,1.4,5.1,1.4h10.3c.3,0,.5.2.8.3,1.5-.6,3-.4,4.4.2.8.4,1.7.2,2.6.4.4.1.7-.3,1-.4.3,0,.6,0,1,0,0,0,.2,0,.3,0v-.7s281.1-1.1,281.1-1.1v.4c.2,0,.5,0,.7,0,1.1,0,2.1,0,3.2-.2,1.1-.1,2.1-.3,3.1.1.1,0,.4,0,.5,0,1.5.3,3.1,0,4.6-.2.3,0,.6-.1.9-.2h2.5c4.6,0,8.5-3.2,9.6-7.5.4-.1.8-.2,1.3-.3,1.7-.3,3.4-.8,5-1.5,1.4-.6,2.8-1.2,4.2-1.7,2-.8,4.2-1.2,6.2-2.2,1.4-.7,2.9-1.4,4.3-2.2,1.4-.9,2.9-1.7,4.3-2.5.7-.4,1.4-.8,2-1.3,1.3-1.1,2.5-2.3,3.8-3.3,1.4-1,2.6-2.1,3.8-3.3.8-.9,1.1-1.8,1.3-2.9,0-.3,0-.5,0-.8,0-.5.2-.9.5-1.3.3-.3.5-.7.9-1.1,0-.3-.2-.6-.3-.9-.1-.3-.2-.6-.4-.9-.2-.4-.6-.6-1.1-.6.3,1.2.2,1.7-.6,2.1-.8.4-1.5,0-2-.3-.5-1-.2-2.1-.4-3,0,0,.2-.2.4-.3-.3-.3-.7-.6-1.2-.5-.7,0-1.3-.3-2-.5-.6-.2-1.1-.3-1.7-.3-1.6,0-3.2,0-4.7-.6-1.4-.6-2.9-.6-4.3-.6-.8,0-1.5-.1-2.2-.4,0,0-.1-.2-.3-.3.9-.3-.2-.7.2-1.2.3-.1.8-.3,1.3-.4.6-.1,1.3-.2,1.9-.3.3,0,.6-.1.9,0,1,.4,2,.2,2.9,0,.4,0,.8.2,1.2-.3,0-.5,0-1-.4-1.5-.4,0-.8,0-1.2,0-.4-.4-.8-.9-1.2-1.3-.6-.5-1.1-1.1-2.1-.8-.1,0-.4,0-.5-.1-.4-.2-.7-1.3-.5-1.7.3-.1.6-.3,1.1-.5-.1-.3-.3-.7-.4-1,.4-.5.9-.8,1.5-.9.5,0,.9-.2,1.4-.2.5,0,.7-.3.7-.4-.4-.9-1.1-1.3-1.7-1.6,0-.9,0-1.7-.2-2.6.6-.3,1.1-.8,1.3-1.5,0,0,.2-.2.4-.2-.2-.2-.4-.3-.6-.5-.5-.7-.4-1.3.5-1.7.1,0,.2-.1.3-.1,1-.2,1.7-.7,2.2-1.5.2-.3.5-.4.8-.5,1.9-.6,3.9-.8,5.6-1.8,1.1,0,1.7-.6,2.3-1.4.3-.4.8-.7,1.1-1,.4-.4.8-.7,1-1.2-.5-.3-1.1-.6-1.3-.9-.2-.6-1-.6-1.1-1.1-.1-.5-.2-1-.3-1.5,0,0-.1-.1-.3-.3-.6,0-1.3,0-2.1.1-.1-.6-.2-1.1-.4-1.8-2.8.7-5.5,1.4-8.3,2-.2-.3-.3-.6-.5-.8.4-.4.7-.7.9-.9-.1-.6-.2-1-.3-1.5-.2-.9-.8-1.2-1.9-1.1-.3,0-.7,0-1,0-1-.2-1.9-.3-3-.3-.3,0-.6-.1-.8-.3-1.3-.8-2.1-2-2.8-3.3.4-.2.9-.3,1.1-.5.4-.4.8-.5,1.4-.4.3,0,.5-.4.3-.6-.8-.8-.8-2.1-2-2.7-.2,0-.2-.4-.2-.6,0-.4,0-.7-.1-1.1.5-.3.8,0,.9.3.3.7.9,1,1.7,1.2.5-.9-1.1-1.1-.8-2,1.1.1,1.8-.3,2.4-1.1-.9-.6-1.5.3-2.2.2-1-.3-2-.7-3.1-.7-.5,0-.8-.6-.5-1,.6-.7,1.2-1.3,2.3-1.4.1,0,.3.1.4-.1.2-.3.4-.6.6-.9-.1-.4-.3-.9,0-1.4.6.1,1.2.2,1.8.3,0-.3,0-.5.1-.6.7-.3,1.1.2,1.4.6,0,.1.3.2.4.3.2-.3.4-.6.6-.8-.2-.5-.6-.9-1.2-1.1-.4-.1-.3-.9,0-.9.7,0,1.1-.6,1.6-.8.9-.3.9-.4,1-1.4.3,0,.7-.1,1-.3.3-.1.5-.3.8-.5,0,0-.2,0-.2,0-.4.3-.6.2-.8-.2,0-.1-.2-.2-.3-.3,0-.5,0-.9,0-1.5.3-.1.6-.4,1-.4.7,0,1.1-.5,1.4-.8.3-.3.5-.5.9-.6.3,0,.6-.2,1-.3-.1-.2-.2-.4-.3-.5.5-.3,1-.1,1.5,0,.3-.3.2-.9.9-.8h0s0,0,0,0c0,.2,0,.4.3.4,0,0,.1-.2.2-.3,0,0,0,0,0-.1,0,0,0,0,0,0h0c.2-1,.2-2,1-2.7,0,0,0-.2,0-.3-.1,0-.3,0-.4,0-.2-.6-.7-.9-1.3-.8-.9,0-1.8,0-2.7.4-1,.4-2.2.7-3.1,1.3-.2.1-.4.2-.7.2-.8,0-1.4-.3-1.9-.7-.3-.3,0-.7.1-1,.5-.3,1.2.1,1.7-.3h0s0,0,0,0c.2,0,.3,0,.5,0,0,0,0,0,0,0h0c.3.2.6.4,1,.3h0c.1-.1.2-.2.3-.3-.2-.5-.8-.9-.3-1.5.6-.2,1.4-.4,2.1-.7-.2-.6-.4-1.1-.6-1.6,0-.2,0-.2,0-.3.1-.1.3-.2.4-.3.9-1.1,2.1-1.5,3.6-1.4.6,0,1.3,0,1.9.2.6.1,1.2,0,1.6-.4.8-.8,1.8-1.5,2.2-2.6,0-.1,0-.2,0-.3-.3-.5-.5-1.2-.2-1.7.5-.8.5-1.9,1.2-2.6.3-.3.8-.5,1.2-.6,1-.3,1.8-.8,2.6-1.4.8-.6,1.6-1,2.5-1.4,1.1-.5,2.2-1,3.1-1.7,0-.5-.1-1,0-1.5.4-1,.9-2.1,2.1-2.6.3-.1.5-.3.7-.4,1.1-.5,1.8-1.3,2.7-2,0,0,0-.3.2-.8-1.1.9-1.8.3-2.6,0ZM1857,1048.1s.2,0,.3,0c0,.1,0,.3-.1.4,0,0-.2,0-.3-.1,0,0,0-.2,0-.3ZM1476.4,1029.8c-.9.2-1.7.1-2.6-.5.8-.8,1.7-1,2.6-.7.2,0,.3.5.3.7,0,.1-.2.4-.4.5ZM1449.2,1065s0-.2,0-.2c0,0,.2,0,.3,0,0,0,0,.2.1.3-.2,0-.3,0-.4,0ZM1455.5,1060.3c0,0-.2,0-.3,0-.2-.1-.4-.2-.7-.4,0,0,0-.2,0-.3.2-.4.5-.2.7,0,.1,0,.3.1.4.3,0,0,0,.2,0,.3,0,0-.1.2-.2.2ZM1463.7,1177.1c-.6-.2-1.1-.3-1.7-.4-.1-.4,0-.7.2-.8.1,0,.4.1.5,0,.3-.1.5-.1.7.1.2.2.5.5.2,1ZM1485,1032.4c0,.2-.2.4-.3.6,0,0,0,0-.1,0,.1-.2.3-.4.4-.6ZM1472,1052.4c.5.2,1.2,0,1.7,0,.6,0,1.1.5,1.7,0q-.8-.8-1.8-.2c-.2-.4-.8-.7-.6-1.5.6,0,1.4-.2,2,0,.7.2,1.4,0,2.1-.1.4-.1.8-.2,1.3-.2.5,0,.8.2,1.1.6.3.4,0,1.1-.4,1.1-.3,0-.6,0-.8,0-.2,0-.3.4-.5.6q1.3.8,1.1,1.8c-.7.6-1.4-.3-2.2,0-.7.3-1.4.3-2.1.4-.2.5-.4.9-.6,1.3-.2,0-.4,0-.4-.1-.6-1.1-1.5-1.4-2.6-1.6-1-.1-1.9-.3-2.8-.5,0-1.1.1-1.5.7-1.5,1,0,1.9-.4,2.9,0ZM1468.5,1041.4c.6-.3,1.1-.5,1.7-.7.3.2.6.4,1.1.7-.2.3-.4.5-.5.7-.3.5-.3.5-.8,0-.4.1-.9.3-1.3.4,0,0,0-.1-.1-.2.1-.1.4-.2.3-.3,0-.2-.2-.4-.3-.7ZM1463.2,1041.6c.4-.2.7.2,1,.3.5.3.6.8.6,1.3-.6.4-1.1,0-1.7-.1,0-.1-.2-.2-.2-.3,0-.4-.3-1,.2-1.2ZM1462.7,1044.8c1.1,0,2.3-.1,3.4-.1.9,0,1.4.8,2.4,1.4-.9.2-1.4.4-1.9.5-.2,0-.3,0-.5,0-1-.3-2-.5-3-.8-.2,0-.4-.2-.5-.4,0-.1,0-.6.1-.6ZM1466.5,1054.6v.2s0,0,0-.1c0,0,0,0,0,0ZM1464.4,1054.6s-.1,0-.1,0c0,0,0,0,0-.1,0,0,.1,0,.1,0,0,0,0,0,0,.1ZM1463.5,1054.5c0,0-.1,0-.2,0,0,0,0,0,0-.1,0,0,0,0,.2.2ZM1458,1033.8c.5-.2.9,0,1.4.3-.5,0-1,.3-1.4-.3ZM1459.2,1060.7c0-.2,0-.3,0-.5.1,0,.3,0,.4,0,0,0,.1.2,0,.3,0,0-.2.1-.4.2ZM1460.1,1053.9c0-.1,0-.3.2-.4.2-.2.5-.3.7-.1.2.2.4.4.7.7-.4.1-.7.3-1,.3-.3,0-.5-.1-.6-.5ZM1467.6,1169c-.3,0-.6-.3-.8-.5-.1-.1,0-.4-.1-.7.7-.2,1.3,0,1.9.3-.2.8-.5,1-1,.9ZM1471.8,1175.3c0,0,0-.2,0-.3,0,0,0,0,.1,0,0,0,0,.2,0,.3,0,0,0,0-.1,0ZM1472.4,1176.4c0,0-.2,0-.3.1,0-.1,0-.3,0-.4,0,0,.2,0,.3,0,0,.1,0,.2,0,.3ZM1472.9,1172.1c-.9,0-1.5-.6-2-1.4,0,0,.1-.2.2-.3-.1,0-.3,0-.4,0,0,0,0-.2-.1-.3.2-.3.4-.6.7-1.1-1.4-.4-1.5-.5-1.5-1.9-.9-.4-1.9-.5-2.8-.7-.8-.2-.8-.2-1.4-1.1.5-1.1,1.6-.2,2.4-.9-.6-.3-1.3-.4-1.8-.8-.5-.4-.7-1-1.1-1.5.1-.8.5-1.1,1.1-1.2,1.4-.4,3.8.7,4.4,2.3.2.5.2,1,.2,1.6,1.6-.4,3.1.2,4.7.7-.2.4-.3.6-.5,1,.5,1.1.6,1.2,1.5,1,.5,0,1.1-.1,1.5-.2.5.5.4,1,0,1.4-.5.6-1,1.1-1.5,1.6.2.3.4.5.7.8,0,.2-.1.5-.2.7-.2.1-.2.2-.3.3-1.3.3-2.6.1-3.9,0ZM1479.2,1178.5c-.3,0-.7.2-1,.2-.7-.5-1.4-.9-2.1-1.3,0-.2,0-.5.2-.6.5-.5,1.1-.8,1.8-.3.4.3.8.6,1.3.9,0,.4,0,.7-.1,1.1ZM1478.3,1062.7c-.9-.4-1.7-.3-2.6-.1-.3,0-.5.4-.8.4-.4,0-.8-.1-1.1-.3-.3-.2-.7-.4-1-.6-.3.1-.6.3-.9.5-.4-.3-.7-.6-1-.8-.2,0-.4,0-.4.1-.2.3-.4.6-.7.6-.5,0-1,0-1.5,0-1,0-1.9-.2-2.9-.3-.1,0-.2,0-.3,0-.9.6-1.8,0-2.7,0-.6-.7-1.1-1.3-1.7-1.9.3-.6.7-.9,1.3-.8,1.2.1,2.5.2,3.7.4.2,0,.3.2.5.1.8-.4,1.6.2,2.4,0,.6-.2,1.2-.1,1.8,0,.7.2,1.5.2,2.3,0,.3,0,.7-.1,1,0,.6.1,1.3.4,1.9.4.6,0,1.3-.2,1.9-.1.5,0,1.1.1,1.6,0,.8-.2,1.5.3,2.2.4.6.1.7,1,.3,1.4-.4.5-.9.9-1.4,1.4-.6-.2-1.2-.4-1.8-.7ZM1481.6,1185.9c-.2-.3-.4-.6-.6-1,.2-.1.3-.2.4-.3.3,0,.7,0,.8.4.1.5,0,.8-.6.9ZM1484.5,1180.2c-1-.6-2.1-.9-3.2-1.2-.3,0-.5-.1-.8-.3-.2-.1-.3-.4-.3-.6,0-.2.2-.5.3-.6.7-.3,1.5-.4,2.2-.2.6.1,1.2.4,1.8.6,0,0,.1,0,.2,0v2.2c0,0-.2,0-.3-.1ZM1486.5,1190.6c-.6-.7,0-1,.3-1.4.5.7,1.1,1.3,1.7,1.8-.7-.3-1.3-.5-2-.4ZM1830.1,1046.9c-.3,0-.3-.3-.2-.5.1-.2.3-.4.5-.4.7-.1,1.3,0,1.9.6-.8.5-1.4.6-2.2.3ZM1851.6,1156.5c.1,0,.3.2.2.3,0,.2-.2.4-.3.5-.2,0-.5,0-.6-.1-.1-.2-.2-.4-.3-.8.4,0,.7,0,.9,0ZM1839.3,1140.9c0,0,0,.1,0,.2,0,0-.1,0-.2,0,0,0,.1,0,.2-.1ZM1833.7,1050c0,0-.2,0-.2-.1,0,0,0-.1,0-.1,0,0,.2,0,.3,0,0,0,0,.2-.1.3ZM1836.1,1050.1c-.3.5-1.2.6-1.6.2-.3-.3-.2-.7.1-.8.3,0,.7-.1,1-.1.3,0,.6.5.5.7ZM1847.2,1092.5c0,0,0,0-.2,0,0,0,0,0,0,0,0,0,.2,0,.2,0ZM1843.3,1096.6c0,0-.1,0-.2.1,0-.3.1-.2.2-.1ZM1842.6,1097.2h0c0,0-.1.1-.1.1h0ZM1846.6,1050.5c-.5.2-1,.1-1.5-.1-.2-.1-.4-.3-.2-.5.1-.1.4-.2.6-.1.4.2.7.4,1,.6.1,0,.2,0,.4,0-.1,0-.2,0-.3.1Z"/>
          <path class="cls-9" d="M1847.7,1095.6c0,0-.1,0-.2,0,0,0,0,0-.1,0,0,0,0,0,0,0,0,0,0,0,0,0,0,0,.2,0,.3,0Z"/>
          <path class="cls-9" d="M1451.5,1169.6c0,0,0,.2.2.2,0,0,0,0,.1,0,0,0-.1-.2-.2-.2,0,0,0,0-.1,0Z"/>
          <path class="cls-9" d="M1510,1195.7s0,0,0,0c0,0,0,0,0-.1,0,0-.1,0-.2,0,0,0,0,0,0,.1Z"/>
          <path class="cls-9" d="M1427,1157s0,0,0,0c0,0,0,0,0,0,0,0,0,0,0,0,0,0,0,0-.1,0Z"/>
          <path class="cls-9" d="M1449.9,1072.6c0,0,0-.2,0-.3,0,0-.2-.1-.3,0-.1,0-.2.2-.3.3.1,0,.2.1.4.2,0,0,.2,0,.3-.1Z"/>
          <path class="cls-9" d="M1450.7,1074.3c0,0,0-.1,0-.2h0c0,.1,0,.1,0,.1,0,0,0,0,0,0,0,0,0,0,0,0Z"/>
          <path class="cls-9" d="M1449.2,1072.5s0,0,0,0c0,0,0,0,0,0,0,0,0,0,0,0Z"/>
          <path class="cls-9" d="M1444.4,1075.5c0,0,.1,0,.2,0,0,0,0,0,0,0,0,0,0,0,0,0Z"/>
          <path class="cls-9" d="M1465.5,1076.4c.2-.2.3-.5.4-.7.2,0,.5,0,1.2,0-.5-.6-.8-1-1.2-.8-.4.1-.7,0-1.1,0-.3,0-.7,0-1.1,0-.1,0-.3.3-.3.5,0,.2.1.5.3.6.4.2.8.3,1.2.4.2,0,.5,0,.6,0Z"/>
          <path class="cls-9" d="M1446.7,1073c.5.4.9.8,1.2,1.5.4.8,1.2.9,1.9.4.3-.2.5-.4.8-.6-.5-.5-.9-1.1-1.4-1.7,0,0,0,0,0,0-.8,0-1.7-.5-2.5.4Z"/>
          <path class="cls-9" d="M1462.2,1075c.1.2.3.4.4.6,0,0,.1-.2.1-.3,0-.3-.2-.4-.5-.3Z"/>
          <path class="cls-9" d="M1444.6,1075.4s0,0,.1,0c0,0,0,0-.1,0,0,0,0,0,0,0,0,0,0,0,0,0Z"/>
          <path class="cls-9" d="M1453,1075.4c.9-.4,1.8-.5,2.6,0,.4-.2.8-.4,1.2-.6.1.3.2.5.4.8.8-.5,1.9-.1,2.6-.9-1.5-.7-2.2-.8-3.8-.5-.3-.2-.6-.5-.8-.8-1.1.3-2.1.8-3.3.7-.1,0-.3,0-.4.2-.2.1-.2.6,0,.8.5.4,1.1.7,1.7.4Z"/>
          <path class="cls-9" d="M1443.9,1121.1s0,0,.1,0c0,0,0,0,0,0,0,0,0,0,0,0,0,0,0,0-.1,0Z"/>
          <path class="cls-9" d="M1470.2,1031h0c0,0,0,0,0,0,0,0,0,0,0,0,0,0,0,0,0,0Z"/>
          <path class="cls-9" d="M1446.1,1072.6c-1-.3-1.5-1.3-2.6-.6.7.3,1.2.6,1.7.8.1,0,.3,0,.9-.2Z"/>
          <path class="cls-9" d="M1445.2,1128.9s0,0-.1,0c0,0,0,0,0,0,0,0,0,0,.1,0,0,0,0,0,0-.1Z"/>
        </g>
        <g>
          <path class="cls-9" d="M186.4,958.4l-15.6,46.3h-42.6l68.1-200.5h54.5l71,200.5h-45.6l-16.5-46.3h-73.3ZM250.3,922.9c-14.2-42.3-23.3-69.4-28.1-87.4h-.3c-4.9,19.8-15,51.2-26.4,87.4h54.8Z"/>
          <path class="cls-9" d="M344.6,804.2h43.4v165h99.9l-5,35.5h-138.3v-200.5Z"/>
          <path class="cls-9" d="M648.6,918.3h-95.9v50.9h105.8l-5.1,35.5h-142.7v-200.5h142.2v35.5h-100.1v43h95.9v35.5Z"/>
          <path class="cls-9" d="M807.6,1004.7l-42.9-70.6h-.3l-43.9,70.6h-46.7l66.7-101-64.8-99.5h50.3l40.5,66.5h.3l41.9-66.5h46l-64.5,95.6,67.6,105h-50.1Z"/>
          <path class="cls-9" d="M915,958.4l-15.6,46.3h-42.6l68.1-200.5h54.5l71,200.5h-45.6l-16.5-46.3h-73.3ZM978.9,922.9c-14.2-42.3-23.3-69.4-28.1-87.4h-.3c-4.9,19.8-15,51.2-26.4,87.4h54.8Z"/>
          <path class="cls-9" d="M1073.1,1004.7v-200.5h53.7c25,45,71.3,126.2,80.5,148.1h.5c-2.3-20.9-2.2-55.7-2.2-88.6v-59.4h39.3v200.5h-51c-21.5-39.2-72.8-132.5-82.8-155.6h-.5c1.5,17.5,1.9,58.7,1.9,94.6v61h-39.6Z"/>
          <path class="cls-9" d="M1290.1,804.2h79.5c58.4,0,96.6,38.5,96.6,97.7s-37,102.8-98.4,102.8h-77.7v-200.5ZM1333.5,969.7h32.5c38.4,0,55.4-28.6,55.4-67.6s-15.9-62.8-55.2-62.8h-32.8v130.5Z"/>
          <path class="cls-9" d="M1639.2,918.3h-95.9v50.9h105.8l-5.1,35.5h-142.7v-200.5h142.2v35.5h-100.1v43h95.9v35.5Z"/>
          <path class="cls-9" d="M1719.6,924.5v80.3h-42.4v-200.5h88.1c43.7,0,67.3,24.1,67.3,55s-14.6,41.5-29.1,47.4c9.9,3.7,24.9,14,24.9,49.9v9.9c0,13.5.1,28.8,2.9,38.2h-41.1c-3.5-8.7-4.2-23.7-4.2-45v-2.9c0-21.9-5.5-32.3-37.9-32.3h-28.5ZM1719.6,890h36.3c23.7,0,32.9-9,32.9-25.8s-10.7-25.4-31.9-25.4h-37.4v51.2Z"/>
        </g>
        <g>
          <g>
            <g>
              <path class="cls-10" d="M1618.6,1101.9c4.5-3.5,9.5-5.6,15.3-6.5l1.6-.3,1.1-1c1-.9,2-2.6,2.1-4.2.1-6.1,0-12.2,0-18.1,0,0,0-3.2,0-3.2l-.3-5.8-6.1,1.6c-8.7,2.2-16.2,8.3-20.3,16.3-3.3,6.6-3.8,13.4-1.3,19.3l2.5,6,5.4-4.1ZM1616.5,1082.6c3.4-6.8,9.9-11.9,17.1-13.8,0,0,0,3.1,0,3.1,0,5.9,0,11.9,0,17.9,0,.3-.4,1-.6,1.2-6.6,1-12.4,3.5-17.7,7.5-2-4.7-1.6-10.4,1.2-15.8Z"/>
              <path class="cls-8" d="M1646.7,1152v-6.1s.2,0,.2,0c0-5.4-.1-10.8-.1-16.1,0-2,0-3.9,0-5.9,0-.2,0-.4,0-.6,0-.6,0-1.3,0-2-.4-3.8-2-5.2-6.3-5.4-7.5-.4-13.4-2.6-18-6.6-.5-.5-1-1-1.5-1.5,4-4.1,8.9-6.4,15.2-7.1.5,0,1,0,1.5-.1.5,0,1.1,0,1.6-.1,4-.4,5.7-2.1,5.8-5.7,0-4.4,0-8.8,0-13.1,0-1.8,0-3.6,0-5.4,0-3.2,0-6.3,0-9.5,0-1.8,0-3.6,0-5.5,0-.3.1-.7.1-1.1v-21.2c-.1-3-2.7-5.5-5.9-5.5s-5.8,2.5-5.8,5.5v18.6c-.2.4-.8.7-1.9,1-12.6,3.8-20.5,11-25.5,20.6-6.1,11.9.2,24.5,1.1,27.8.2.7.2.9.2,1-1,3.3-2,6.6-3.1,9.8,0,0-2.4,9.7,1.4,17.7,5.4,11.2,14,19.1,27.8,22.4,1,.3,1.6.5,2,.8v22.1c.1,1.6.9,3,2,4,.9.9,2.1,1.4,3.7,1.5.1,0,.2,0,.3,0,2.2,0,3.9-1,4.8-2.7.6-.8.9-1.8.9-2.9v-27.6c-.1-.5-.2-.9-.3-1.4ZM1642,1181c0,.2,0,.4-.2.6v.2c-.1,0-.2.2-.2.2,0,0,0,.1-.1.1,0,0,0,0,0,0,0,0,0,0-.2,0h0c-.2,0-.3,0-.3,0l-.2-.2c-.1-.1-.3-.4-.3-.8v-24c-.1,0-1.6-1.3-1.6-1.3-1.3-1.1-2.8-1.6-4.2-1.9-11.6-2.8-19.4-9.1-24.5-19.9-2.9-6.1-1.4-13.8-1.2-14.8,1-3.2,2.1-6.5,3-9.7.4-1.2.1-2.4-.2-3.5-.1-.5-.4-1.1-.7-1.9-1.7-4.5-5.2-14-.7-22.7,4.7-9.1,12-15.1,22.5-18.2,1.4-.4,3.2-1.1,4.5-2.7l.9-1.2v-20c0-.5.3-.9.7-.9s.8.4.8.9v21.2c.1,0,0,.1,0,.2v.4c0,0,0,15.4,0,15.4v5.4c0,4.3,0,8.7,0,13,0,.5,0,.8-.1,1-.2,0-.5.2-1.2.2-.4,0-.9,0-1.3,0-.7,0-1.3,0-1.9.1-7.5.8-13.7,3.7-18.4,8.6l-2.9,3,2.9,3c.6.6,1.2,1.2,1.8,1.8,5.4,4.8,12.4,7.4,21.2,7.9.8,0,1.2.1,1.4.2,0,.2.1.5.2,1.1,0,.5,0,1,0,1.5v6.5c0,3.8,0,7.7,0,11.5h-.1s0,11.2,0,11.2l.2.5c0,.1,0,.2,0,.3v27.6Z"/>
              <path class="cls-7" d="M1618.7,1114l-5.9-4.6-2.2,6.8c-2.3,6.9-1.3,14.8,2.5,21.5,4.3,7.5,12,12.9,21.2,15l6.2,1.4-.2-32.3-4.3-.5c-6.6-.8-12.4-3.2-17.4-7.1ZM1635.5,1148.2c-7.7-1.7-14.2-6.3-17.9-12.7-3.3-5.7-4.1-12.3-2.2-18.1,5.7,4.5,12.4,7.2,20,8.2v22.5Z"/>
            </g>
            <g>
              <path class="cls-4" d="M1723.5,1099.4c2.7-6.7,1.6-14.9-3.1-22.4-5-8-12.8-13.4-21-14.4l-5.7-.7.2,31.7,4.2.6c6.8,1,12.6,3.4,17.4,7.1l5.5,4.4,2.5-6.2ZM1718.8,1097.9c-5.5-4.4-12.2-7.1-19.9-8.2v-22.6c6.5.8,13,5.3,17.2,12.1,3.9,6.4,4.9,13.2,2.8,18.7Z"/>
              <path class="cls-3" d="M1727.6,1108.8c-.3-.7-.4-1.9,0-2.7,4.4-9.7,4.4-20.5-.2-29.6-4.8-9.4-14-16.3-26-19.4-.8-.2-1.6-.4-2.5-.6v-17.6c0-3-2.7-5.5-5.9-5.5-3.2,0-5.8,2.5-5.8,5.5v21.2c.1.4.1.8.2,1.1,0,5.7,0,11.4,0,17,0,4.2,0,8.4,0,12.6,0,7.3.9,8.1,9,8.7,6.8.5,12.3,3.1,16.9,7.8-4.1,4.4-9.7,6.8-17.5,7.4-5.2.4-6.6,1.8-6.6,6.3,0,6.8,0,13.7,0,20.7v7.4s0,0-.2,0v3.9s0,6.1,0,6.1v21.5c.1,3,2.7,5.5,5.9,5.5,3.2,0,5.8-2.5,5.8-5.5v-23.3c.2-.3.7-.6,1.6-.8,11.9-3.5,20.3-9.9,24.9-18.9,4.7-9.3,4.8-19,.1-29ZM1723,1135.9c-4,7.8-11.4,13.3-21.9,16.4-1.3.4-2.9,1-4.1,2.3l-1.1,1.2v24.9c.1.5-.3.9-.7.9s-.8-.4-.8-.9v-27.2c-.1,0,0-4.4,0-4.4v-7.4c0-7.1-.1-13.9-.1-20.7,0-.8,0-1.3,0-1.6.3,0,.9-.2,1.9-.2,9.1-.7,15.9-3.6,20.9-9l2.8-3-2.9-2.9c-5.4-5.5-12.2-8.6-20.2-9.3-2.1-.2-3.5-.3-4.2-.5-.1-.5-.2-1.6-.2-3.7l-.2-30.1v-.4c-.1,0-.1-.1-.1-.2v-21.2c-.1-.5.3-.9.7-.9s.8.4.8.9v21.1c.1,0,3.8.9,3.8.9.9.2,1.6.4,2.4.6,10.6,2.8,18.7,8.8,22.8,16.9,4,7.9,4.1,17.4.2,25.9-.8,1.8-.8,4.3,0,6.2,4.1,8.8,4.1,17.3,0,25.3Z"/>
              <path class="cls-2" d="M1715.5,1113.4c-4.2,3.4-9.3,5.5-15.6,6.5l-4.2.7.2,31.9,6.4-1.7c8.5-2.2,15.7-8,19.7-15.8,3.4-6.6,4-13.6,1.6-19.7l-2.5-6.3-5.6,4.4ZM1717.4,1133.1c-3.4,6.6-9.5,11.5-16.6,13.3v-22c7.1-1.2,13.1-3.6,18-7.6,1.9,4.9,1.4,10.8-1.4,16.3Z"/>
            </g>
            <path class="cls-1" d="M1698.2,1103.1l-59.8.2c-2.9,0-11,2.2-11,4.8s8.2,4.7,11,4.7l59.8-.2c2.9,0,10.5-2.2,10.5-4.8s-7.6-4.7-10.5-4.7ZM1698.8,1108.2c-.2.1-.4.2-.6.2l-59.8.2h0c-.2,0-.4,0-.7-.2-.3-.1-.5-.3-.8-.4.3-.2.6-.3.8-.4.2-.1.5-.2.7-.2l59.8-.2c0,0,.2,0,.3,0,.1,0,.2,0,.3.1.2.1.5.3.8.4-.3.2-.5.3-.8.4Z"/>
          </g>
          <g>
            <g>
              <path class="cls-6" d="M1802,1170.2c.4.9.8,1.7,1.1,2.6,1.8,4.9,1,9.8-2.2,12.5-4,3.4-10.3,3.8-13.6.4-1.2-1.2-1.7-3.3-2.2-5.1-.4-1.5-.2-3.2-.6-4.7-1.1-5-5.6-6.3-8.8-2.6-2.6,3-4.8,6.5-7.5,9.6-4.2,4.8-10.6,4.8-16.3.2-4.9-3.9-6.8-11.1-4.1-16.6.8-1.7,2.5-3.1,4.1-4.1,3.7-2.4,7.6-4.2,11.2-6.6,4.4-3,7.9-7.1,9.1-12.8.4-1.9,0-4,0-6-1.8.2-3.6,0-5.2.8-2.8,1.2-5.3,3.1-8.1,4.4-3.9,1.8-6.6,1.2-8-1.4-2.2-4-1.6-9.6,1.5-12.2,2-1.7,4.4-2.8,6.8-3.9,3.3-1.5,6.9-2.4,9.9-4.4,2.3-1.5,4.2-4.2,5.9-6.7.5-.8.4-2.7-.2-3.6-.4-.6-2-.7-3-.5-3.3,1-6.6,2.4-9.9,3.2-5,1.3-8.1-.4-9.8-4.9-2.2-5.9-.7-10.1,4.8-12.3,3.8-1.4,7.7-2.2,11.6-3.3,1.7-.5,3.5-.9,5.1-1.7,2.9-1.2,5.2-3,4.7-7.1-.4-3.1-3.3-6.5-6.4-6.3-3.6.3-7,1.7-10.6,2.5-13.3,2.8-27.3,16.7-27.3,16.7,1.1-22.1,20.2-34.3,20.2-34.3.5-.2,1-.4,1.5-.7.2,0,.4-.3.6-.5-3.4-5.2-2.7-10.4.4-15.4,2.5-4,7.8-5.8,12.3-4.5,3,.9,5.1,2.9,5.9,6.2.7,3.1,1.2,6.3,2.1,9.3,1.4,4.5,4.2,5.2,7.3,1.8,1.1-1.2,2.1-2.7,2.7-4.2,3.3-7.6,16.3-10.7,23.4-2.3,3,3.5,3.5,9.1.4,13.6-2.8,4.1-6.4,7.5-9.8,11.1-3.3,3.6-6.9,6.7-9.8,10.6-1.5,2-2.2,5.1-2.5,7.8-.3,3,1.3,4,3.8,2.6,2.2-1.2,4.2-2.8,6.4-4,4.4-2.4,8.7-1.5,10.6,2.2,2.1,4.1.8,10-3.3,12.6-3.1,2-6.5,3.2-9.8,4.7-3,1.3-6.1,2.4-9,3.9-3.8,2-4.8,5.2-3.6,9.5.9,3.3,2.5,4.3,5.5,3.2,1.2-.4,2.3-1,3.4-1.6,2.4-1.3,4.7-2.8,7.2-4.1,2.8-1.4,5.7-2.9,8.2.2,2,2.5,1.9,7.7-.8,10.6-2.1,2.4-5,4-7.7,5.6-2.4,1.4-5,2.1-7.4,3.3-2.3,1.1-3.4,3.3-2.8,6,.6,2.6,2.2,4.8,4.6,4.3,3.1-.5,6.4-1.4,8.9-3.4,0,0,12-9.5,20.3-23.2,0,0-1.6,30.4-21.4,42.9Z"/>
              <path class="cls-9" d="M1765.7,1044.6c.3,0,.6,0,.9,0,2.7.4,3.8,3.9,4.1,4.9.2.9.5,1.8.7,2.6.5,2.3,1.1,4.6,2.4,6.8,1.9,3.1,4.2,4.6,7,4.6s.6,0,.9,0c2.5-.3,5.3-2.1,7.4-4.5.7-.9,1.3-1.7,1.9-2.6.9-1.4,1.8-2.7,3.1-3.7,1.6-1.3,3.9-2.1,6.2-2.1.6,0,1.3,0,1.9.2,3.3.8,5.5,2.4,6.4,4.8,1.1,2.9,0,6.5-2.5,9.5h0s0,0,0,0c-2.5,3.1-5.4,6-8.2,8.8-3.3,3.3-6.7,6.7-9.5,10.4h0s0,0,0,0c-2.9,4.2-5.1,11.9-.8,15.6h0s0,0,0,0c1.2.9,2.6,1.4,4.1,1.4,2.5,0,4.9-1.3,7.2-2.6,1.6-.9,3.1-1.7,4.5-2,.2,0,.5,0,.7,0,.9,0,1.4.4,1.8.7.7.7,1,1.8.9,2.9h0s0,0,0,0c-.1,1.6-1.1,3.2-2.6,4.3-2.5,1.8-5.6,3-8.6,4.2-1.2.5-2.4,1-3.6,1.5h-.2c-3.4,1.5-6.7,2.9-8.9,5.2-2.3,2.3-3.4,5.7-3,9.2.4,3.3,2,6.2,4.6,7.9h0s0,0,0,0c1.1.7,2.4,1,3.9,1,3.5,0,7.3-2.1,10.7-3.9,1.3-.7,2.5-1.3,3.6-1.8.9-.4,1.5-.5,1.9-.5.6,0,.8.2.9.3.3.3.4,1,.2,1.8-.2,1.4-1.2,2.8-2.5,4-1.9,1.7-4.3,2.9-6.4,3.9-.6.3-1.1.5-1.7.8-2.5,1.1-5,2.2-6.8,4.1-1.7,1.8-2.6,4.4-2.3,7,.3,2.8,1.8,5.5,4.1,7,1.4,1,3.2,1.5,5.2,1.5,3.7,0,7.7-1.7,10.3-3.1,2-1.1,3.3-2.3,5-3.8.3-.2.5-.5.8-.7,1.6-1.4,3.2-3,4.8-4.6-2.6,8-7.9,15.5-14.7,21h0s0,0,0,0c-1.4,1.2-2.9,2.6-1.8,8.2.2,1.1.4,2.2.4,3.3h0s0,0,0,0c0,1.5-.6,3.1-1.7,4.2-1,1-2.3,1.5-3.7,1.5s-.1,0-.2,0h0c-3-.3-3.7-2.6-4.5-6.2-.1-.7-.3-1.3-.5-2-1.2-4.8-4.9-7.9-9.2-7.8-3,0-6,1.5-8.4,4.2-1.1,1.1-2.1,2.4-3.2,3.8-2.3,3.1-4.8,6.3-8.4,6.3s-1,0-1.5-.2c-2.9-.7-5.4-2.9-6.7-5.7-1.2-2.7-1.2-5.4,0-7.7,1.5-2.4,4.4-4,7.2-5.6.9-.5,1.8-1,2.7-1.5,5.7-3.3,9.7-6.8,12.1-10.8,2.3-3.6,4.6-10.9,2-15-1.1-1.8-3-2.7-5.5-2.7-1.2,0-2.5.2-3.9.6-2.3.6-4.3,1.7-6.3,2.7-.6.3-1.2.6-1.8.9-1.3.6-2.1.8-2.5.8s-.7-.1-.8-.2c-1.2-1.2-1.1-3.6-.2-5.2,1-1.7,2.9-2.8,4.8-3.7,1.4-.7,2.8-1.3,4.2-1.9,4-1.7,8.2-3.4,11.2-6.7,3.8-3.5,5.4-8.2,3.9-11.5-1.1-2.3-3.4-3.5-6.5-3.5-1.4,0-3.1.3-4.8.8-1,.2-2,.6-3,.9-1.7.6-3.4,1.2-4.9,1.2-1.2,0-2-.4-2.7-1.2-1.6-1.9-1.8-5.7.2-7.1h0s0,0,0,0c.8-.6,1.7-1,2.6-1.3,2-.7,4.2-1.3,6.6-1.9,3.8-1,7.7-2,10.9-3.7,3.3-1.9,5.3-5.3,5.4-9,0-3.9-2-7.4-5.4-9.4-1.7-1.1-3.7-1.6-6.1-1.6-2.4,0-4.8.5-7,1.1l-1,.3c-3.6.9-7.3,1.9-11,3.4-3.5,1.5-7.1,3.5-11.1,6.2h0s0,0,0,0c-.2.1-.4.3-.5.3.4-1,1-2.3,1.3-2.8h0c3.8-7.4,9.3-12.5,12.2-14.9h0s0,0,0,0c.5-.4,1-.7,1.5-1.1,1.1-.7,2.3-1.6,3.2-2.9,1.3-2.1.7-4.3.2-6.3-.2-.9-.4-1.7-.5-2.5-.1-1.7.3-3.4,1.1-5.1,1.3-2.5,3.6-4.1,6-4.1M1765.7,1043.4c-3.1,0-5.8,2.1-7.2,4.7-1,1.8-1.4,3.7-1.2,5.7.2,2.8,2,5.7.4,8.2-1.1,1.8-3,2.5-4.5,3.8-3,2.4-8.6,7.6-12.5,15.2-.9,1.7-2.5,5-1.2,5s1.1-.3,2.3-1.1c3.4-2.3,7.1-4.4,10.9-6,3.9-1.7,7.9-2.6,11.8-3.6,2.1-.5,4.4-1.1,6.6-1.1,1.9,0,3.8.4,5.4,1.4,6.4,3.8,6.5,12.9,0,16.6-4.9,2.7-11.9,3.6-17.3,5.5-1.1.4-2.1.8-3,1.5-2.6,1.8-2.4,6.3-.5,8.7,1.1,1.2,2.3,1.6,3.7,1.6,2.6,0,5.6-1.5,8.2-2.1,1.7-.5,3.2-.7,4.5-.7,7.4,0,7.6,7.7,1.7,13.1-3.9,4.3-10,5.8-15.2,8.3-2.1,1-4.2,2.3-5.3,4.2-1.1,1.9-1.4,4.8.4,6.5.5.4,1.1.6,1.7.6,1.1,0,2.2-.5,3.1-.9,2.5-1.2,5.1-2.7,7.9-3.5,1.4-.4,2.6-.6,3.6-.6,7.9,0,5.8,10.8,2.4,16-2.6,4.4-7,7.7-11.7,10.4-3.6,2.2-8,4-10.2,7.5-3.2,5.5.9,13.3,7.4,15,.6.1,1.3.2,1.8.2,6,0,8.8-7,12.5-10.6,2.3-2.6,4.9-3.8,7.4-3.8,3.6,0,6.8,2.4,8,7,1,3.6,1.1,8.6,6,9.1h.1c0,0,.2,0,.2,0,3.9,0,6.9-3.3,6.7-6.8,0-4-2.5-7.6,1-10.7,8-6.4,13.7-15.4,16-24.5,0-.4,0-.5-.2-.5-.6,0-2.1,1.8-2.6,2.3-1.5,1.6-3.2,3.2-4.8,4.7-2.1,1.9-3.5,3.2-5.6,4.4-2.7,1.5-6.4,3-9.7,3s-3.2-.3-4.5-1.2c-4-2.8-5-8.9-1.6-12.4,2-2.2,5.3-3.3,8.1-4.7,2.4-1.1,4.7-2.4,6.7-4.1,1.4-1.3,2.6-2.9,2.9-4.6.4-2.1-.5-3.4-2.3-3.4s-1.5.2-2.4.6c-4,1.8-9.2,5.6-13.7,5.6s-2.2-.2-3.2-.8c-5-3.4-5.4-11.4-1.4-15.5,2.1-2.1,5.3-3.4,8.7-4.9,4.2-1.9,8.8-3.3,12.5-5.9,1.7-1.3,2.9-3.1,3.1-5.1.3-2.6-1.4-4.8-3.9-4.8s-.6,0-.9.1c-3.6.8-7.5,4.6-11.4,4.6s-2.2-.3-3.3-1.1c-3.8-3.4-1.4-10.7,1-14.2,5.2-6.9,12.2-12.4,17.7-19.2,5.2-6,4.5-14.1-4.5-16.2-.7-.1-1.4-.2-2.2-.2-2.6,0-5.1.9-7,2.4-2.1,1.7-3.3,4.2-5.1,6.4-1.8,2.2-4.3,3.8-6.5,4.1-.2,0-.5,0-.7,0-2.6,0-4.5-1.8-5.9-4-1.7-2.9-2-6.1-2.9-9.2-.6-2.5-2.2-5.3-5.1-5.8-.4,0-.8,0-1.1,0h0Z"/>
            </g>
            <ellipse class="cls-5" cx="1785.3" cy="1039.5" rx="8.2" ry="7.5"/>
          </g>
          <path class="cls-11" d="M1503.6,1037h42.6c27.5,0,46.3,15.3,46.3,41.5s-19.2,42.6-47.7,42.6h-26.2v62h-15.1v-146.1ZM1518.7,1108h26.3c22,0,31.9-11.3,31.9-29s-12.6-28.9-31.1-28.9h-27.1v57.9Z"/>
        </g>
      </g>
    </g>
  </g>
</svg>